<svg xmlns="http://www.w3.org/2000/svg" width="50.405" height="50.405" viewBox="0 0 50.405 50.405"><defs><style>.a,.b{fill:none;}.b{stroke:#fffff8;stroke-linecap:round;stroke-linejoin:round;stroke-width:3px;}</style></defs><path class="a" d="M0,0H50.405V50.405H0Z"/><path class="b" d="M18.384,5.766a3.62,3.62,0,0,1,7.036,0A3.621,3.621,0,0,0,30.824,8,3.622,3.622,0,0,1,35.8,12.982a3.621,3.621,0,0,0,2.237,5.4,3.62,3.62,0,0,1,0,7.036,3.621,3.621,0,0,0-2.239,5.4A3.622,3.622,0,0,1,30.822,35.8a3.621,3.621,0,0,0-5.4,2.237,3.62,3.62,0,0,1-7.036,0,3.621,3.621,0,0,0-5.4-2.239A3.622,3.622,0,0,1,8,30.822a3.621,3.621,0,0,0-2.237-5.4,3.62,3.62,0,0,1,0-7.036A3.621,3.621,0,0,0,8,12.98,3.622,3.622,0,0,1,12.982,8a3.619,3.619,0,0,0,5.4-2.237Z" transform="translate(3.301 3.301)"/><circle class="b" cx="6" cy="6" r="6" transform="translate(19.203 19.203)"/></svg>